<svg xmlns="http://www.w3.org/2000/svg" viewBox="0 0 108 108" fill="currentColor" aria-hidden="true">
  <path
    d="
      m 89 40
      a 20 22 0 0 0 -64 0
      a 28 40 0 0 0 5 20
      l 27 44
      l 27 -44
      a 28 40 0 0 0 5 -20
    Z"
    fill="#227722"
  />
  <path
    d="
      m 83 37
      a 24 24 0 0 0 -52 0
      a 24 28 0 0 0 21 30
      l 0 -16
      l -12 0
      l 17 -33
      l 17 33
      l -12 0
      l 0 16
      a 22 28 0 0 0 21 -30
    Z"
    fill="#f9f9f9"
  />
</svg>
